<?xml version="1.0" encoding="UTF-8"?>
<!DOCTYPE svg PUBLIC "-//W3C//DTD SVG 1.1//EN" "http://www.w3.org/Graphics/SVG/1.1/DTD/svg11.dtd">
<!-- Creator: CorelDRAW X7.4 EN Portable -->
<svg xmlns="http://www.w3.org/2000/svg" xml:space="preserve" width="573.242mm" height="255.356mm" version="1.1" style="shape-rendering:geometricPrecision; text-rendering:geometricPrecision; image-rendering:optimizeQuality; fill-rule:evenodd; clip-rule:evenodd"
viewBox="0 0 57324 25536"
 xmlns:xlink="http://www.w3.org/1999/xlink">
 <defs>
  <style type="text/css">
   <![CDATA[
    .str0 {stroke:white;stroke-width:1128.89}
    .str1 {stroke:#2E70AF;stroke-width:7.62}
    .fil2 {fill:none;fill-rule:nonzero}
    .fil0 {fill:#2E70AF;fill-rule:nonzero}
    .fil3 {fill:#2E70AF;fill-rule:nonzero}
    .fil4 {fill:#6BB8EF;fill-rule:nonzero}
    .fil1 {fill:#CCCCCC;fill-rule:nonzero}
    .fil5 {fill:white;fill-rule:nonzero}
   ]]>
  </style>
 </defs>
 <g id="Ebene_x0020_1">
  <metadata id="CorelCorpID_0Corel-Layer"/>
  <g id="_823030424">
   <g>
    <path class="fil0" d="M34664 19711c1864,0 3672,-749 4989,-2066 1317,-1318 2066,-3126 2066,-4989 0,-1864 -749,-3672 -2066,-4989 -1317,-1318 -3125,-2067 -4989,-2067 -1864,0 -3672,749 -4989,2067 -1317,1317 -2067,3125 -2067,4989 0,1863 750,3671 2067,4989 1317,1317 3125,2066 4989,2066z"/>
   </g>
  </g>
  <path class="fil1" d="M11043 16445l1098 578c-362,702 -778,1270 -1251,1702 -473,429 -1003,759 -1594,984 -593,226 -1260,337 -2006,337 -1658,0 -2950,-540 -3883,-1619 -934,-1080 -1400,-2299 -1400,-3658 0,-1279 396,-2422 1187,-3423 1000,-1273 2343,-1911 4023,-1911 1730,0 3114,654 4146,1959 734,921 1108,2070 1121,3451l-9144 0c25,1172 403,2131 1130,2877 731,749 1632,1124 2702,1124 518,0 1023,-89 1512,-267 489,-178 904,-413 1247,-708 343,-295 715,-768 1112,-1426zm12 -2724c-174,-695 -428,-1247 -762,-1663 -336,-416 -778,-750 -1327,-1004 -549,-254 -1127,-381 -1730,-381 -1000,0 -1858,318 -2575,956 -527,467 -921,1162 -1191,2092l7585 0z"/>
  <path id="1" class="fil1" d="M23625 9683l1296 0 0 8052c0,1416 -124,2454 -372,3111 -340,927 -930,1641 -1775,2143 -841,502 -1854,753 -3035,753 -867,0 -1645,-124 -2337,-369 -689,-247 -1251,-578 -1686,-993 -432,-413 -832,-1023 -1197,-1820l1410 0c384,673 879,1172 1489,1496 606,324 1362,485 2261,485 889,0 1638,-165 2248,-492 612,-330 1047,-743 1308,-1238 260,-498 390,-1302 390,-2416l0 -521c-489,619 -1089,1096 -1797,1426 -705,333 -1457,498 -2251,498 -930,0 -1803,-231 -2623,-692 -819,-460 -1450,-1083 -1898,-1860 -448,-781 -670,-1639 -670,-2572 0,-937 232,-1807 698,-2616 464,-807 1108,-1448 1931,-1918 822,-470 1689,-705 2600,-705 756,0 1464,156 2118,464 654,308 1286,822 1892,1543l0 -1759zm-3845 1009c-736,0 -1422,178 -2054,534 -632,355 -1127,848 -1486,1476 -359,629 -540,1308 -540,2042 0,1108 372,2022 1115,2749 743,724 1708,1086 2889,1086 1197,0 2159,-359 2886,-1076 727,-721 1092,-1664 1092,-2836 0,-762 -168,-1441 -501,-2038 -334,-597 -810,-1070 -1423,-1416 -613,-346 -1273,-521 -1978,-521z"/>
  <polygon class="fil1" points="44403,19798 44403,5867 44704,5867 53968,16522 53968,5867 55365,5867 55365,19798 55049,19798 45839,9237 45839,19798 "/>
 </g>
 <g id="Ebene_x0020_2">
  <metadata id="CorelCorpID_1Corel-Layer"/>
  <path class="fil2 str0" d="M29662 12884c0,-2772 2247,-5018 5018,-5018 2772,0 5018,2246 5018,5018 0,2771 -2246,5018 -5018,5018 -2771,0 -5018,-2247 -5018,-5018"/>
 </g>
 <g id="Ebene_x0020_3">
  <metadata id="CorelCorpID_2Corel-Layer"/>
  <polygon class="fil3" points="36714,11265 32621,11265 32621,6750 36714,6750 "/>
  <g id="_823034024">
   <g>
    <path class="fil0 str1" d="M32093 7777c231,59 468,125 621,320 42,-100 84,-201 125,-301 -361,-39 -694,-202 -1064,-183 -226,12 -229,350 0,353 538,8 1042,235 1581,243 228,4 227,-349 0,-352 -537,-9 -1042,-235 -1581,-244 0,118 0,236 0,353 363,-19 706,145 1064,183 173,18 207,-197 125,-302 -188,-240 -493,-337 -777,-410 -221,-56 -314,284 -94,340z"/>
   </g>
  </g>
  <g id="_823026416">
   <g>
    <path class="fil0 str1" d="M36217 8343c410,-62 795,-278 1214,-261 341,13 497,-505 178,-658 -636,-306 -1331,276 -1914,421 -441,110 -254,790 188,680 263,-65 516,-197 761,-297 146,-60 294,-115 446,-156 25,-7 50,-13 75,-18 113,-25 -61,2 45,-8 31,-2 62,-1 93,1 -94,-6 40,30 -50,-13 60,-220 119,-439 178,-658 -491,-20 -925,214 -1401,286 -191,29 -293,266 -246,434 55,202 243,276 433,247z"/>
   </g>
  </g>
  <g id="_823027592">
   <g>
    <path class="fil4" d="M36735 7854c2,-2 3,-3 5,-5 -12,10 -24,19 -36,28 7,-5 14,-9 21,-13 -14,6 -28,12 -42,18 15,-6 29,-9 45,-11 -16,2 -31,4 -47,6 17,-2 34,-2 51,-2 96,0 176,-80 176,-177 0,-96 -80,-176 -176,-176 -92,0 -177,19 -246,82 -71,65 -66,184 0,250 70,70 178,64 249,0z"/>
   </g>
  </g>
  <g id="_823027280">
   <g>
    <path class="fil0" d="M36921 7089c-243,155 -516,225 -715,448 -128,143 -189,325 -136,515 58,214 278,406 510,389 126,-10 238,-34 353,-80 268,-106 453,-350 370,-651 -70,-256 -382,-476 -651,-370 -24,10 -47,18 -71,27 -59,20 -198,30 -1,15 125,301 249,602 374,904 15,-18 30,-34 47,-49 83,-83 -98,65 1,0 49,-31 101,-56 153,-82 102,-48 205,-91 300,-152 243,-154 340,-468 190,-724 -141,-241 -480,-345 -724,-190z"/>
   </g>
  </g>
  <g id="_823027208">
   <g>
    <path class="fil0" d="M36780 7945c20,20 40,40 61,61 68,68 181,68 249,0 68,-68 68,-182 0,-250 -20,-20 -40,-40 -61,-61 -68,-68 -181,-68 -249,0 -68,68 -68,182 0,250z"/>
   </g>
  </g>
  <g id="_823026896">
   <g>
    <path class="fil4" d="M37097 8027c227,0 227,-353 0,-353 -228,0 -228,353 0,353z"/>
   </g>
  </g>
  <g id="_823026752">
   <g>
    <path class="fil4" d="M37158 7997c227,0 227,-353 0,-353 -228,0 -228,353 0,353z"/>
   </g>
  </g>
  <g id="_823026536">
   <g>
    <path class="fil4" d="M37219 7966c227,0 227,-353 0,-353 -228,0 -228,353 0,353z"/>
   </g>
  </g>
  <g id="_823025048">
   <g>
    <path class="fil4" d="M37249 7966c227,0 227,-353 0,-353 -228,0 -228,353 0,353z"/>
   </g>
  </g>
  <g id="_823021832">
   <g>
    <path class="fil4" d="M37431 7966c228,0 228,-353 0,-353 -227,0 -227,353 0,353z"/>
   </g>
  </g>
  <g id="_823019120">
   <g>
    <path class="fil4" d="M37431 7966c228,0 228,-353 0,-353 -227,0 -227,353 0,353z"/>
   </g>
  </g>
  <g id="_705078784">
   <g>
    <path class="fil4" d="M37492 7997c228,0 228,-353 0,-353 -227,0 -227,353 0,353z"/>
   </g>
  </g>
  <g id="_705076672">
   <g>
    <path class="fil4" d="M37492 7997c228,0 228,-353 0,-353 -227,0 -227,353 0,353z"/>
   </g>
  </g>
  <g id="_705077920">
   <g>
    <path class="fil4" d="M37492 7997c228,0 228,-353 0,-353 -227,0 -227,353 0,353z"/>
   </g>
  </g>
  <g id="_705073024">
   <g>
    <path class="fil0 str1" d="M37136 8039c54,-15 108,-32 162,-45 82,-19 -81,4 5,1 39,2 34,1 -15,-4 19,4 38,10 56,17 31,-231 62,-462 94,-693 -65,3 -129,14 -193,24 -23,4 -45,8 -68,11 103,-16 43,-5 17,-4 -157,5 -297,103 -340,259 -46,167 35,300 162,398 34,26 77,41 117,56 89,33 -39,-29 5,5 59,-219 119,-438 178,-657 -62,6 -106,13 -162,32 -16,6 -33,12 -50,18 -52,19 -62,0 53,1 102,177 203,354 305,531 0,-1 0,-1 1,-2 -43,43 -85,85 -127,127 11,-8 24,-13 36,-20 172,-86 220,-324 127,-482 -102,-174 -311,-214 -483,-127 -69,35 -117,85 -164,147 -72,99 -58,257 0,357 63,107 181,174 305,174 58,0 97,-12 147,-30 49,-18 172,-38 12,-21 158,-16 295,-96 340,-259 46,-167 -35,-300 -162,-398 -34,-27 -77,-41 -116,-56 -90,-33 38,29 -6,-5 -59,219 -118,438 -178,657 65,-2 129,-14 193,-24 22,-3 45,-7 68,-11 -103,17 -43,6 -17,5 157,-6 297,-104 340,-259 53,-196 -66,-370 -247,-434 -199,-71 -387,-21 -583,30 -185,49 -297,250 -246,434 51,187 248,296 434,247z"/>
   </g>
  </g>
 </g>
 <g id="Ebene_x0020_4">
  <metadata id="CorelCorpID_3Corel-Layer"/>
  <g id="_705071680">
   <g>
    <path class="fil5" d="M32263 9041c298,0 547,-249 547,-547 0,-298 -249,-547 -547,-547 -298,0 -547,249 -547,547 0,298 249,547 547,547z"/>
   </g>
  </g>
 </g>
 <g id="Ebene_x0020_5">
  <metadata id="CorelCorpID_4Corel-Layer"/>
  <g id="_705077800">
   <g>
    <path class="fil5" d="M37087 9045c298,0 547,-249 547,-547 0,-298 -249,-547 -547,-547 -298,0 -547,249 -547,547 0,298 249,547 547,547z"/>
   </g>
  </g>
 </g>
 <g id="Ebene_x0020_6">
  <metadata id="CorelCorpID_5Corel-Layer"/>
  <polygon class="fil5" points="35197,13982 34138,13982 34138,7561 35197,7561 "/>
  <g id="_705071320">
   <g>
    <path class="fil5" d="M34683 8169c298,0 547,-249 547,-547 0,-298 -249,-547 -547,-547 -298,0 -546,249 -546,547 0,298 248,547 546,547z"/>
   </g>
  </g>
  <g id="_705078088">
   <g>
    <path class="fil5" d="M34669 14404c298,0 547,-248 547,-547 0,-298 -249,-546 -547,-546 -298,0 -547,248 -547,546 0,299 249,547 547,547z"/>
   </g>
  </g>
 </g>
</svg>
